# xmcd
#
# Track frame offsets:
#	150
#	16050
#	43453
#
# Disc length: 1120 seconds
#
# Revision: 0
# Processed by: cddbd v1.5.2PL0 Copyright (c) Steve Scherf et al.
# Submitted via: audiograbber 1.83.01
#
DISCID=1e045e03
DTITLE=Blof - Alles is liefde [CDs)
DYEAR=2007
DGENRE=Nederlandstalig
TTITLE0=Alles is liefde (radio)
TTITLE1=Alles is liefde (akoestisch)
TTITLE2=Gegevens track
EXTD=
EXTT0=
EXTT1=
EXTT2=
PLAYORDER=
